<?xml version="1.0" encoding="UTF-8" standalone="no"?>
<svg
   id="Capa_1"
   enable-background="new 0 0 511.096 511.096"
   height="450.79593"
   viewBox="0 0 511.096 449.99999"
   width="512"
   version="1.1"
   sodipodi:docname="chat.svg"
   inkscape:version="1.1 (c68e22c387, 2021-05-23)"
   xmlns:inkscape="http://www.inkscape.org/namespaces/inkscape"
   xmlns:sodipodi="http://sodipodi.sourceforge.net/DTD/sodipodi-0.dtd"
   xmlns="http://www.w3.org/2000/svg"
   xmlns:svg="http://www.w3.org/2000/svg">
  <defs
     id="defs10" />
  <sodipodi:namedview
     id="namedview8"
     pagecolor="#ffffff"
     bordercolor="#666666"
     borderopacity="1.0"
     inkscape:pageshadow="2"
     inkscape:pageopacity="0.0"
     inkscape:pagecheckerboard="0"
     showgrid="false"
     inkscape:zoom="1.5859375"
     inkscape:cx="256"
     inkscape:cy="225.41872"
     inkscape:window-width="1920"
     inkscape:window-height="1001"
     inkscape:window-x="-9"
     inkscape:window-y="-9"
     inkscape:window-maximized="1"
     inkscape:current-layer="Capa_1"
     fit-margin-top="0"
     fit-margin-left="0"
     fit-margin-right="0"
     fit-margin-bottom="0" />
  <g
     id="Speech_Bubble_48_"
     style="fill:#ffffff;fill-opacity:1"
     transform="translate(0,-30.548)">
    <g
       id="g4"
       style="fill:#ffffff;fill-opacity:1">
      <path
         d="M 74.414,480.548 H 38.2 L 63.807,454.941 C 77.614,441.134 86.236,423.176 88.554,403.695 29.427,364.893 0,308.681 0,249.751 0,141.032 99.923,30.548 256.414,30.548 c 165.785,0 254.682,101.666 254.682,209.678 0,108.724 -89.836,210.322 -254.682,210.322 -28.877,0 -59.01,-3.855 -85.913,-10.928 -25.467,26.121 -59.973,40.928 -96.087,40.928 z"
         id="path2"
         style="fill:#ffffff;fill-opacity:1" />
    </g>
  </g>
  <g
     id="g1553"
     transform="translate(8.812,-50.689714)">
    <circle
       style="fill:#333333;fill-opacity:1;stroke-width:0.998234"
       id="path1380"
       cx="185.36673"
       cy="254.60387"
       r="19.197571" />
    <circle
       style="fill:#333333;fill-opacity:1;stroke-width:0.998234"
       id="path1380-6"
       cx="255.548"
       cy="254.60385"
       r="19.197571" />
    <circle
       style="fill:#333333;fill-opacity:1;stroke-width:0.998234"
       id="path1380-6-7"
       cx="329.19113"
       cy="255.23328"
       r="19.197571" />
  </g>
</svg>
