<svg id="Layer_1" data-name="Layer 1" xmlns="http://www.w3.org/2000/svg" viewBox="0 0 182.37 58.03"><defs><style>.cls-1{fill:#e76f51;}</style></defs><path class="cls-1" d="M26.87,75.74a14.62,14.62,0,0,1-9-2.59,15.06,15.06,0,0,1-5.11-6.69A23,23,0,0,1,11.18,58a39,39,0,0,1,1.73-11.41A50.45,50.45,0,0,1,24.64,26.42,33,33,0,0,1,33,20.05a18.73,18.73,0,0,1,8.82-2.34,9.21,9.21,0,0,1,5.32,1.48c1.44,1,2.17,2.67,2.17,5.07a18.08,18.08,0,0,1-.76,4.83,29.43,29.43,0,0,1-2,5.15,15.91,15.91,0,0,1-2.84,4.06,4.63,4.63,0,0,1-3.24,1.59,2.78,2.78,0,0,1-1.51-.51,4.39,4.39,0,0,1-1.44-1.72c.72-.82,1.53-1.81,2.45-3a43.49,43.49,0,0,0,2.59-3.75,28.23,28.23,0,0,0,2-3.88,8.92,8.92,0,0,0,.8-3.35,2.84,2.84,0,0,0-.73-2.05,3.37,3.37,0,0,0-2.52-.76,11.25,11.25,0,0,0-6.51,2.38,30.93,30.93,0,0,0-6.45,6.37,56.45,56.45,0,0,0-9.5,19.08,37.26,37.26,0,0,0-1.44,9.9,20.63,20.63,0,0,0,1.05,6.59,11.25,11.25,0,0,0,3.34,5.11,9,9,0,0,0,6.05,2,15.7,15.7,0,0,0,7.74-2.16,28.19,28.19,0,0,0,7.06-5.69,31.61,31.61,0,0,0,5.14-7.56l1.88,1.22a44,44,0,0,1-6.05,8.82,29,29,0,0,1-8,6.41A19.6,19.6,0,0,1,26.87,75.74Z" transform="translate(-11.18 -17.71)"/><path class="cls-1" d="M50.13,72.22c-1.06,0-1.81-.82-2.27-2.45a21.08,21.08,0,0,1-.68-5.69,35.5,35.5,0,0,1,1.11-8,87.3,87.3,0,0,1,3-9.87Q53.23,41,55.56,36.07a94.13,94.13,0,0,1,4.83-9,41.26,41.26,0,0,1,4.75-6.52q2.27-2.44,4-2.45a2.49,2.49,0,0,1,2.3,1.66,7.88,7.88,0,0,1,.79,3.45,16.38,16.38,0,0,1-.9,4.79,45.18,45.18,0,0,1-2.48,6.09,52.36,52.36,0,0,1-3.71,6.37,43.65,43.65,0,0,1-4.61,5.72,24.44,24.44,0,0,1-5.15,4.18,42.59,42.59,0,0,0-1.47,4.57,31.64,31.64,0,0,0-.76,4,32.78,32.78,0,0,0-.21,3.67q0,.36,0,.75a6.8,6.8,0,0,1,0,.76,13.88,13.88,0,0,0,.93-2.23c.44-1.2,1-2.6,1.77-4.21a30.57,30.57,0,0,1,2.77-4.76A15.75,15.75,0,0,1,62.37,49a8.69,8.69,0,0,1,5.11-1.55,5.93,5.93,0,0,1,3.82,1.11,6.14,6.14,0,0,1,1.94,2.74,9.82,9.82,0,0,1,.58,3.28,12.34,12.34,0,0,1-.76,4.32c-.5,1.34-1,2.6-1.51,3.78A8.38,8.38,0,0,0,70.79,66a2.27,2.27,0,0,0,.58,1.8,2,2,0,0,0,1.37.51,6.54,6.54,0,0,0,3.7-1.59,23.33,23.33,0,0,0,4.25-4.21,29,29,0,0,0,3.64-5.79L85.48,58a36.91,36.91,0,0,1-3.89,6.62,20.3,20.3,0,0,1-4.89,4.83,10.11,10.11,0,0,1-5.76,1.8,5.66,5.66,0,0,1-4.18-1.44,4.88,4.88,0,0,1-1.44-3.6,11.94,11.94,0,0,1,.54-3.35c.36-1.22.71-2.46,1-3.71a12.91,12.91,0,0,0,.51-3.38,3,3,0,0,0-.76-2.38,2.71,2.71,0,0,0-1.83-.64,4.51,4.51,0,0,0-3.24,1.4A14,14,0,0,0,59,57.74Q57.84,60,56.82,62.46t-2,4.72a16.72,16.72,0,0,1-2.13,3.63A3.21,3.21,0,0,1,50.13,72.22Zm6.77-26.5a26.91,26.91,0,0,0,3.6-4A53.21,53.21,0,0,0,63.7,37c1-1.65,1.85-3.26,2.59-4.82a41.82,41.82,0,0,0,1.77-4.21,12.58,12.58,0,0,0,.72-2.88v-.22c-.29,0-.9.59-1.84,1.76a48.74,48.74,0,0,0-3.24,4.76c-1.22,2-2.45,4.23-3.67,6.73A59.69,59.69,0,0,0,56.9,45.72Z" transform="translate(-11.18 -17.71)"/><path class="cls-1" d="M86.42,72.86a6,6,0,0,1-4.14-1.58,6.06,6.06,0,0,1-1.77-4.75,15.3,15.3,0,0,1,1.15-5.47,28.12,28.12,0,0,1,3.17-5.84A30.57,30.57,0,0,1,89.44,50,24.51,24.51,0,0,1,95,46.22a13.39,13.39,0,0,1,5.91-1.44,8.61,8.61,0,0,1,5.25,1.59,4.93,4.93,0,0,1,2.16,4.17,3.06,3.06,0,0,1-1.36,2.81,4.32,4.32,0,0,1-3.24.51c.09-.44.18-.87.25-1.3a8.54,8.54,0,0,0,.11-1.37,5.77,5.77,0,0,0-.58-2.59A2.47,2.47,0,0,0,101,47.45a7.49,7.49,0,0,0-4.1,1.37,19.54,19.54,0,0,0-4,3.56,30.81,30.81,0,0,0-3.42,4.83,28.88,28.88,0,0,0-2.37,5.14,14.06,14.06,0,0,0-.87,4.54c0,1.54.55,2.3,1.66,2.3a6.1,6.1,0,0,0,3.67-1.62,29.45,29.45,0,0,0,4.07-4.07c1.37-1.63,2.67-3.29,3.92-5s2.33-3.16,3.24-4.36a.65.65,0,0,1,.58-.35c.19,0,.56.15,1.11.32a5.56,5.56,0,0,1,1.55.75,1.53,1.53,0,0,1,.72,1.3,4.09,4.09,0,0,1-.61,1.84c-.41.74-.89,1.56-1.44,2.44a24.91,24.91,0,0,0-1.44,2.67,6.08,6.08,0,0,0-.61,2.55,3.39,3.39,0,0,0,.5,1.77,1.8,1.8,0,0,0,1.66.83c1.15,0,2.77-.86,4.86-2.56s4.21-4.59,6.37-8.68l1.37,1.37a30.66,30.66,0,0,1-4.14,6.88A21.36,21.36,0,0,1,108.23,70a9.93,9.93,0,0,1-5.4,1.69,5.18,5.18,0,0,1-4.39-1.87,7.26,7.26,0,0,1-1.58-4v-.36a43.84,43.84,0,0,1-5.3,5.47A7.88,7.88,0,0,1,86.42,72.86Z" transform="translate(-11.18 -17.71)"/><path class="cls-1" d="M120.9,72.79a7.06,7.06,0,0,1-5.11-1.87c-1.3-1.25-1.94-3.14-1.94-5.69A31,31,0,0,1,115,57.89a90.17,90.17,0,0,1,2.85-9.07,11.46,11.46,0,0,0-1.19-.26,5.2,5.2,0,0,1-1.33-.39V45.94l1.9.21,1.55.15q1.52-3.82,3.28-7.38a70.56,70.56,0,0,1,3.53-6.38,26.71,26.71,0,0,1,3.34-4.42,4.35,4.35,0,0,1,2.81-1.62,2.11,2.11,0,0,1,1.37.54,1.89,1.89,0,0,1,.65,1.54,9.47,9.47,0,0,1-1.48,4.11q-1.47,2.66-3.63,6.23c-1.44,2.37-2.84,4.9-4.18,7.59h2.23c2.11,0,4,0,5.73-.11s3.44-.2,5.22-.39v2.37c-2.64.24-5.07.44-7.28.58s-4.32.24-6.33.29h-.87a69.14,69.14,0,0,0-2.62,7.23,24.92,24.92,0,0,0-1.12,7.24,7,7,0,0,0,.94,4.18,3.48,3.48,0,0,0,3,1.22q3.6,0,7.38-3.28A28.19,28.19,0,0,0,137.25,57l1,.72a34.06,34.06,0,0,1-4.64,7.71,23.53,23.53,0,0,1-6,5.43A12.67,12.67,0,0,1,120.9,72.79Z" transform="translate(-11.18 -17.71)"/><path class="cls-1" d="M143.44,72.65c-3.07,0-5.44-.83-7.09-2.49a8.42,8.42,0,0,1-2.49-6.22,16.25,16.25,0,0,1,1.62-6.73,27.21,27.21,0,0,1,4.36-6.7,24.46,24.46,0,0,1,6-5.08,13,13,0,0,1,6.62-1.94,7,7,0,0,1,3.56,1c1.13.65,1.7,1.93,1.7,3.85a9,9,0,0,1-1.59,5.11,16,16,0,0,1-4.25,4.25,25.47,25.47,0,0,1-5.86,3.06,27.29,27.29,0,0,1-6.45,1.55,5.51,5.51,0,0,0-.11.61q0,.33,0,1a10.51,10.51,0,0,0,.11,1.26,5.66,5.66,0,0,0,.61,1.9,4.32,4.32,0,0,0,1.65,1.73,6,6,0,0,0,3.17.72,12.47,12.47,0,0,0,6.09-1.69,24.49,24.49,0,0,0,5.76-4.5,27,27,0,0,0,4.5-6.26l1.44,1.15a27.21,27.21,0,0,1-5,7.56,23.18,23.18,0,0,1-6.77,5A17.19,17.19,0,0,1,143.44,72.65Zm-3-13a14,14,0,0,0,4.18-1.3A23,23,0,0,0,149,55.58,16.56,16.56,0,0,0,152.51,52a7,7,0,0,0,1.37-4,1.54,1.54,0,0,0-.29-1.08,1.29,1.29,0,0,0-.94-.29,6.32,6.32,0,0,0-3.45,1.19,18.73,18.73,0,0,0-3.53,3.1,26.94,26.94,0,0,0-5.26,8.75Z" transform="translate(-11.18 -17.71)"/><path class="cls-1" d="M163.6,73.73a1.07,1.07,0,0,1-1-.51,1.7,1.7,0,0,1-.33-.93,7.11,7.11,0,0,1,1.51-3.21q1.51-2.19,4-5.07T173,58.1A38.35,38.35,0,0,0,172,52.71c-.38-1.25-1.11-1.88-2.16-1.88a3.87,3.87,0,0,0-2.95,1.62,24.33,24.33,0,0,0-2.67,4q-1.29,2.37-2.73,4.68l-1.23-2a41.83,41.83,0,0,0,1.91-3.85,34.46,34.46,0,0,1,2-3.92,9.85,9.85,0,0,1,2.77-3.06,6.93,6.93,0,0,1,4.18-1.19,5.54,5.54,0,0,1,4.35,1.65,11.32,11.32,0,0,1,2.27,4.47q3.24-3.24,5.9-5.44c1.78-1.46,3-2.19,3.68-2.19a2.86,2.86,0,0,1,1.22.43,2.52,2.52,0,0,1,1.15,1.44,5.49,5.49,0,0,0-2.7,1.26,42,42,0,0,0-4,3.38q-2.27,2.13-4.64,4.79c.14.67.27,1.61.39,2.81s.3,2.43.54,3.71a9.85,9.85,0,0,0,1.12,3.2,2.31,2.31,0,0,0,2,1.3,4.54,4.54,0,0,0,2.66-1.08A17.2,17.2,0,0,0,187.9,64a37,37,0,0,0,2.59-3.52,30.81,30.81,0,0,0,1.91-3.35l1.15,1.08a28.12,28.12,0,0,1-3.35,6.26,21.81,21.81,0,0,1-4.71,5,8.78,8.78,0,0,1-5.33,1.94,4.68,4.68,0,0,1-3.53-1.33,8.75,8.75,0,0,1-2-3.35,26,26,0,0,1-1-4.17q-2.88,3.24-5.22,6.08c-1.56,1.9-2.75,3.37-3.57,4.43A1.5,1.5,0,0,1,163.6,73.73Z" transform="translate(-11.18 -17.71)"/></svg>